# xmcd
#
# Track frame offsets:
#	150
#	14446
#	25823
#	44399
#	55485
#	65568
#	81468
#	96678
#	106864
#	124874
#	142836
#	153218
#	168587
#	175302
#	190521
#	205171
#	216229
#	229413
#	238832
#	261042
#	272500
#	285248
#	299568
#	310673
#	321496
#
# Disc length: 4551 seconds
#
# Revision: 6
# Processed by: cddbd v1.5.2PL0 Copyright (c) Steve Scherf et al.
# Submitted via: EZCDAudioConverter 2.1.7.1
#
DISCID=7711c519
DTITLE=V/A - Children Of Nuggets 3/4
DYEAR=2005
DGENRE=
TTITLE0=The Church - The Unguarded Moment
TTITLE1=The Barracudas - I Can't Pretend
TTITLE2=Died Pretty - Out Of The Unknown
TTITLE3=The Last - L.A. Explosion
TTITLE4=Flamin' Groovies - I'll Cry Alone
TTITLE5=Julian Cope - Sunspots [Single Remix]
TTITLE6=Lipstick Killers - Hindu Gods Of Love
TTITLE7=Green On Red - Death And Angels
TTITLE8=The Sinners - Barbed Wire Heart
TTITLE9=The Chills - Pink Frost
TTITLE10=Chesterfield Kings - She Told Me Lies
TTITLE11=The Smithereens - Beauty And Sadness
TTITLE12=The Mummies - Test Drive
TTITLE13=DMZ - Busy Man [EP Version]
TTITLE14=The Stems - Love Will Grow
TTITLE15=The Spongetones - She Goes Out With Everybody
TTITLE16=The Plimsouls - Hypnotized
TTITLE17=The Unclaimed - No Apology
TTITLE18=Teenage Fanclub - God Knows It's True
TTITLE19=The Hoods - You Keep On Lyin'
TTITLE20=The Sting-Rays - Don't Break Down
TTITLE21=The Fleshtones - The World Has Changed
TTITLE22=The Cynics - Baby What's Wrong
TTITLE23=Laika and The Cosmonauts - Psycko (Themes From Psycho And Vertigo)
TTITLE24=Jigsaw Seen - My Name Is Tom
EXTD=
EXTT0=
EXTT1=
EXTT2=
EXTT3=
EXTT4=
EXTT5=
EXTT6=
EXTT7=
EXTT8=
EXTT9=
EXTT10=
EXTT11=
EXTT12=
EXTT13=
EXTT14=
EXTT15=
EXTT16=
EXTT17=
EXTT18=
EXTT19=
EXTT20=
EXTT21=
EXTT22=
EXTT23=
EXTT24=
PLAYORDER=
